<svg width="11" height="9" viewBox="0 0 11 9" fill="none" xmlns="http://www.w3.org/2000/svg">
  <path d="M0.216886 7.98914c-0.0160623 8.15582 -0.0697791 8.47979 0.0969055 8.71274C0.26359 8.94568 0.587556 8.9994 0.820504 8.83272L0.216886 7.98914NM10.9929 1.36709C11.0398 1.08451 10.8487 0.817449 10.5661 0.770595L5.96115 0.00704609C5.67857 -0.0398092 5.41151 0.151286 5.36465 0.433869C5.3178 0.716452 5.50889 0.983514 5.79148 1.03037L9.88477 1.70908L9.20606 5.80237C9.1592 6.08495 9.3503 6.35202 9.63288 6.39887C9.91546 6.44573 10.1825 6.25463 10.2294 5.97205L10.9929 1.36709ZM0.820504 8.83272L10.7831 1.70405L10.1795 0.860466L0.216886 7.98914L0.820504 8.83272Z" fill="white"/>
</svg>  